<?xml version="1.0" encoding="UTF-8"?>
<svg xmlns="http://www.w3.org/2000/svg" xmlns:xlink="http://www.w3.org/1999/xlink" width="2000px" height="2000px" viewBox="0 0 2000 2000" version="1.1">
<g id="surface1">
<path style=" stroke:none;fill-rule:nonzero;fill:rgb(0%,0%,0%);fill-opacity:1;" d="M 986.328125 550.195312 C 984.765625 550.78125 973.828125 555.46875 961.914062 560.742188 C 950.195312 565.820312 918.945312 579.296875 892.578125 590.625 C 866.210938 601.757812 819.335938 622.265625 788.085938 635.742188 C 757.03125 649.414062 716.601562 666.992188 698.242188 674.804688 C 680.078125 682.617188 647.460938 696.679688 625.976562 706.054688 C 604.492188 715.429688 580.859375 725.78125 573.242188 728.90625 C 549.414062 739.0625 539.84375 752.148438 541.601562 772.070312 C 542.96875 786.523438 549.414062 796.875 560.9375 802.539062 L 569.53125 806.640625 L 1433.007812 806.640625 L 1441.601562 802.148438 C 1452.148438 796.484375 1460.9375 781.25 1460.9375 768.75 C 1460.9375 759.179688 1455.46875 746.875 1448.828125 740.625 C 1443.75 736.132812 1415.234375 722.65625 1360.351562 699.21875 C 1322.265625 683.007812 1284.960938 666.796875 1224.609375 640.625 C 1199.414062 629.6875 1166.40625 615.429688 1151.367188 608.984375 C 1136.328125 602.539062 1121.484375 596.09375 1118.164062 594.726562 C 1106.445312 589.257812 1037.695312 559.765625 1024.414062 554.492188 C 1011.328125 549.21875 994.335938 547.265625 986.328125 550.195312 Z M 1025.585938 618.945312 C 1055.078125 631.445312 1091.015625 647.070312 1156.25 675.390625 C 1185.742188 688.085938 1234.179688 708.984375 1263.671875 721.679688 C 1293.164062 734.375 1318.164062 745.507812 1319.140625 746.484375 C 1320.3125 747.265625 1176.953125 748.046875 1000.78125 748.046875 C 777.929688 747.851562 681.640625 747.265625 684.179688 745.898438 C 686.132812 744.726562 699.609375 738.671875 714.453125 732.421875 C 729.101562 726.171875 759.765625 712.890625 782.226562 703.125 C 820.117188 686.328125 859.179688 669.335938 925.78125 640.625 C 940.234375 634.375 962.304688 624.804688 974.609375 619.335938 C 986.914062 613.867188 998.4375 609.375 1000.195312 609.375 C 1001.953125 609.375 1013.476562 613.671875 1025.585938 618.945312 Z M 1025.585938 618.945312 "/>
<path style=" stroke:none;fill-rule:nonzero;fill:rgb(0%,0%,0%);fill-opacity:1;" d="M 625 843.164062 C 603.710938 853.90625 604.101562 883.984375 625.78125 894.335938 C 632.421875 897.65625 637.890625 898.4375 653.90625 898.4375 L 673.828125 898.4375 L 673.828125 1235.9375 L 650.78125 1236.523438 C 632.617188 1237.109375 626.5625 1238.085938 622.460938 1240.820312 C 614.257812 1246.09375 609.375 1255.46875 609.375 1265.820312 C 609.375 1278.710938 615.625 1287.109375 627.929688 1291.40625 C 637.109375 1294.53125 662.890625 1294.726562 1006.25 1294.335938 L 1374.804688 1293.945312 L 1380.078125 1289.84375 C 1393.945312 1279.492188 1398.242188 1263.671875 1390.234375 1252.148438 C 1381.445312 1239.0625 1377.148438 1237.304688 1352.34375 1236.71875 L 1330.078125 1235.9375 L 1330.078125 898.828125 L 1352.34375 898.242188 C 1371.289062 897.460938 1375.585938 896.875 1380.078125 893.359375 C 1398.046875 880.078125 1399.023438 858.007812 1382.226562 845.507812 L 1375.976562 840.820312 L 1003.90625 840.234375 C 652.734375 839.84375 631.445312 840.039062 625 843.164062 Z M 869.140625 1067.382812 L 869.140625 1236.328125 L 746.09375 1236.328125 L 746.09375 898.4375 L 869.140625 898.4375 Z M 1066.40625 1067.382812 L 1066.40625 1236.328125 L 941.40625 1236.328125 L 941.40625 898.4375 L 1066.40625 898.4375 Z M 1257.8125 1067.382812 L 1257.8125 1236.328125 L 1197.851562 1235.9375 L 1137.695312 1235.351562 L 1137.109375 1066.796875 L 1136.71875 898.4375 L 1257.8125 898.4375 Z M 1257.8125 1067.382812 "/>
<path style=" stroke:none;fill-rule:nonzero;fill:rgb(0%,0%,0%);fill-opacity:1;" d="M 588.476562 1323.242188 C 580.664062 1326.5625 574.21875 1336.71875 574.21875 1345.703125 C 574.21875 1353.90625 579.882812 1363.671875 587.304688 1368.554688 C 592.382812 1371.875 611.132812 1372.070312 999.609375 1372.65625 C 1377.148438 1373.046875 1407.03125 1372.851562 1413.476562 1369.726562 C 1431.445312 1361.328125 1432.617188 1334.570312 1415.429688 1324.21875 C 1409.375 1320.3125 1402.539062 1320.3125 1001.953125 1320.3125 C 656.640625 1320.507812 593.75 1320.898438 588.476562 1323.242188 Z M 588.476562 1323.242188 "/>
<path style=" stroke:none;fill-rule:nonzero;fill:rgb(0%,0%,0%);fill-opacity:1;" d="M 527.34375 1402.148438 C 517.773438 1407.226562 512.5 1419.921875 515.429688 1430.859375 C 518.164062 1441.210938 525 1448.4375 534.375 1450.976562 C 544.53125 1453.90625 1456.835938 1453.90625 1466.992188 1451.171875 C 1475.976562 1448.632812 1483.789062 1440.429688 1485.9375 1430.664062 C 1488.085938 1420.3125 1485.742188 1412.304688 1478.515625 1405.273438 L 1472.460938 1399.414062 L 1003.320312 1398.828125 C 548.4375 1398.4375 533.984375 1398.4375 527.34375 1402.148438 Z M 527.34375 1402.148438 "/>
</g>
</svg>
