<?xml version="1.0" standalone="no"?>
<!DOCTYPE svg PUBLIC "-//W3C//DTD SVG 20010904//EN"
 "http://www.w3.org/TR/2001/REC-SVG-20010904/DTD/svg10.dtd">
<svg version="1.0" xmlns="http://www.w3.org/2000/svg"
 width="1254.000000pt" height="1254.000000pt" viewBox="0 0 1254.000000 1254.000000"
 preserveAspectRatio="xMidYMid meet">

<g transform="translate(0.000000,1254.000000) scale(0.100000,-0.100000)"
fill="#000000" stroke="none">
<path d="M3945 8780 c-11 -4 -31 -20 -45 -35 -25 -27 -25 -27 -30 -278 l-5
-252 -270 -5 c-295 -5 -314 -9 -335 -66 -6 -16 -10 -631 -10 -1620 0 -1731 -3
-1634 53 -1666 17 -10 247 -14 1082 -18 1052 -6 1061 -6 1174 -29 168 -33 312
-90 424 -167 27 -19 66 -39 88 -45 37 -11 44 -10 135 35 185 91 83 86 1755 86
1587 0 1507 -3 1545 55 37 57 12 160 -46 190 -43 22 -2957 23 -3095 0 -49 -8
-99 -16 -110 -17 -20 -3 -20 4 -25 1487 -3 880 -9 1496 -14 1505 -21 34 -94
119 -160 188 -349 361 -910 601 -1523 652 -142 12 -560 12 -588 0z m490 -265
c462 -17 932 -175 1264 -425 80 -61 206 -179 249 -234 l22 -29 0 -1352 c0
-743 -3 -1355 -6 -1358 -4 -3 -36 21 -73 55 -227 209 -530 374 -856 467 -246
69 -399 92 -680 100 l-220 6 -3 1387 -2 1387 22 4 c13 2 50 2 83 1 33 -2 123
-6 200 -9z m-565 -1760 c5 -1112 6 -1193 22 -1218 33 -49 45 -51 348 -58 307
-7 405 -18 615 -70 235 -59 480 -162 639 -269 69 -47 68 -53 -10 -46 -38 4
-496 9 -1019 12 -522 3 -951 6 -952 8 -6 6 -7 142 -5 1449 l2 1387 178 -2 177
-3 5 -1190z"/>
<path d="M7780 8698 c-47 -25 -132 -72 -190 -105 -58 -33 -188 -107 -290 -165
-102 -58 -337 -192 -523 -299 -386 -221 -377 -213 -377 -336 0 -82 21 -129 70
-158 35 -20 47 -20 1422 -20 1383 0 1387 0 1414 21 58 43 69 69 69 158 0 121
-1 122 -316 301 -145 82 -401 228 -569 324 -650 372 -583 345 -710 279z m145
-262 c19 -13 686 -396 855 -491 42 -24 77 -50 79 -60 3 -16 -3 -17 -59 -12
-35 4 -474 7 -976 7 -503 0 -914 4 -914 8 0 4 24 22 53 38 122 72 328 189 557
318 135 76 270 153 300 172 61 37 77 40 105 20z"/>
<path d="M6685 7446 c-106 -47 -113 -186 -11 -236 24 -11 62 -20 89 -20 l47 0
0 -724 0 -723 -66 -6 c-59 -4 -71 -9 -101 -39 -60 -60 -51 -155 19 -198 33
-20 47 -20 1233 -20 933 0 1205 3 1224 13 40 20 64 62 64 111 0 81 -48 126
-146 135 l-62 6 0 720 0 720 55 6 c77 8 96 16 125 50 20 24 25 41 25 84 0 65
-31 109 -88 125 -24 6 -439 10 -1207 10 -953 -1 -1176 -3 -1200 -14z m753
-978 l-3 -723 -180 0 -180 0 -3 723 -2 722 185 0 185 0 -2 -722z m642 -3 l0
-725 -187 2 -188 3 -3 723 -2 722 190 0 190 0 0 -725z m630 0 l0 -725 -182 2
-183 3 -3 710 c-1 391 0 716 3 723 3 9 50 12 185 12 l180 0 0 -725z"/>
<path d="M6570 5354 c-66 -22 -90 -57 -90 -133 0 -42 5 -56 29 -83 l29 -33
334 -7 c183 -4 787 -5 1342 -2 1095 5 1045 3 1082 60 22 32 21 107 0 139 -9
14 -28 33 -43 42 -26 17 -105 18 -1348 20 -726 1 -1327 -1 -1335 -3z"/>
</g>
</svg>
