<?xml version="1.0" standalone="no"?>
<!DOCTYPE svg PUBLIC "-//W3C//DTD SVG 20010904//EN"
 "http://www.w3.org/TR/2001/REC-SVG-20010904/DTD/svg10.dtd">
<svg version="1.0" xmlns="http://www.w3.org/2000/svg"
 width="1024.000000pt" height="1024.000000pt" viewBox="0 0 1024.000000 1024.000000"
 preserveAspectRatio="xMidYMid meet">

<g transform="translate(0.000000,1024.000000) scale(0.100000,-0.100000)"
fill="#000000" stroke="none">
<path d="M5050 7423 c-8 -3 -64 -27 -125 -54 -60 -26 -220 -95 -355 -153 -135
-57 -375 -162 -535 -231 -159 -70 -366 -160 -460 -200 -93 -40 -260 -112 -370
-160 -110 -48 -231 -101 -270 -117 -122 -52 -171 -119 -162 -221 7 -74 40
-127 99 -156 l44 -21 2211 0 2210 0 44 23 c54 29 99 107 99 171 0 49 -28 112
-62 144 -26 23 -172 92 -453 212 -195 83 -386 166 -695 300 -129 56 -298 129
-375 162 -77 33 -153 66 -170 73 -60 28 -412 179 -480 206 -67 27 -154 37
-195 22z m201 -352 c151 -64 335 -144 669 -289 151 -65 399 -172 550 -237 151
-65 279 -122 284 -127 6 -4 -728 -8 -1630 -8 -1141 1 -1634 4 -1621 11 10 6
79 37 155 69 75 32 232 100 347 150 194 86 394 173 735 320 74 32 187 81 250
109 63 28 122 51 131 51 9 0 68 -22 130 -49z"/>
<path d="M3200 5923 c-109 -55 -107 -209 4 -262 34 -17 62 -21 144 -21 l102 0
0 -864 0 -864 -118 -3 c-93 -3 -124 -8 -145 -22 -42 -27 -67 -75 -67 -128 0
-66 32 -109 95 -131 47 -16 179 -17 1937 -15 l1887 2 27 21 c71 53 93 134 52
193 -45 67 -67 76 -194 79 l-114 4 0 863 0 863 114 3 c97 4 119 7 142 25 92
68 97 181 11 245 l-32 24 -1905 3 c-1798 2 -1907 1 -1940 -15z m1250 -1148 l0
-865 -315 0 -315 0 0 865 0 865 315 0 315 0 0 -865z m1010 0 l0 -865 -320 0
-320 0 0 865 0 865 320 0 320 0 0 -865z m980 0 l0 -865 -307 2 -308 3 -3 863
-2 862 310 0 310 0 0 -865z"/>
<path d="M3013 3465 c-40 -17 -73 -69 -73 -115 0 -42 29 -92 67 -117 26 -17
122 -18 2111 -21 1933 -2 2086 -1 2119 15 92 43 98 180 10 233 -31 20 -66 20
-2117 20 -1768 -1 -2090 -3 -2117 -15z"/>
<path d="M2700 3061 c-49 -26 -76 -91 -61 -147 14 -53 49 -90 97 -103 52 -15
4723 -15 4775 -1 46 13 86 55 97 105 11 53 -1 94 -38 130 l-31 30 -2402 3
c-2329 2 -2403 2 -2437 -17z"/>
</g>
</svg>
