<?xml version="1.0" standalone="no"?>
<!DOCTYPE svg PUBLIC "-//W3C//DTD SVG 20010904//EN"
 "http://www.w3.org/TR/2001/REC-SVG-20010904/DTD/svg10.dtd">
<svg version="1.0" xmlns="http://www.w3.org/2000/svg"
 width="2048.000000pt" height="2048.000000pt" viewBox="0 0 2048.000000 2048.000000"
 preserveAspectRatio="xMidYMid meet">

<g transform="translate(0.000000,2048.000000) scale(0.100000,-0.100000)"
fill="#000000" stroke="none">
<path d="M6480 14353 c-50 -18 -98 -44 -112 -60 -46 -50 -48 -71 -48 -476 0
-284 -3 -386 -12 -395 -9 -9 -119 -12 -433 -12 -417 0 -421 0 -465 -22 -26
-14 -57 -41 -75 -66 l-30 -44 -3 -2614 c-2 -2596 -2 -2615 18 -2654 25 -49 72
-84 132 -99 34 -8 481 -11 1630 -11 1580 0 1722 -3 1908 -35 19 -3 62 -11 95
-16 271 -46 487 -133 706 -284 130 -89 203 -88 365 9 50 29 157 69 244 89 36
9 79 19 95 23 17 4 1126 10 2465 13 2340 6 2436 7 2472 24 178 89 165 338 -21
402 -39 13 -315 15 -2384 15 -1496 0 -2382 -4 -2460 -10 -127 -11 -195 -21
-310 -47 -37 -9 -70 -14 -72 -11 -3 3 -6 1086 -6 2408 -1 2039 -3 2410 -15
2451 -25 82 -246 338 -424 490 -41 35 -77 67 -80 70 -14 15 -178 135 -275 199
-327 219 -617 349 -1110 499 -35 11 -270 67 -335 81 -25 5 -85 14 -135 20 -49
6 -115 15 -145 20 -75 12 -230 28 -383 40 -131 10 -770 13 -797 3z m830 -448
c231 -21 433 -49 575 -80 119 -25 206 -46 235 -55 14 -4 59 -18 100 -30 231
-68 344 -113 595 -236 158 -78 161 -80 295 -161 211 -128 445 -327 576 -489
21 -27 42 -51 46 -55 9 -6 11 -4439 3 -4447 -4 -5 -56 40 -115 98 -3 3 -34 30
-70 60 -36 30 -67 58 -70 61 -3 3 -41 32 -85 65 -236 178 -464 308 -755 431
-177 75 -429 156 -605 194 -27 6 -68 15 -90 20 -96 22 -242 47 -340 60 -205
26 -409 39 -617 39 l-228 0 0 2270 0 2270 198 0 c108 0 267 -7 352 -15z m-990
-2875 c5 -1819 6 -1947 22 -1977 23 -42 80 -88 127 -102 26 -7 155 -11 389
-11 329 0 440 -5 637 -31 287 -36 576 -107 852 -208 94 -34 116 -43 278 -121
138 -66 259 -135 368 -209 76 -51 100 -80 55 -67 -82 25 -304 29 -1768 35
l-1555 6 -2 2305 c-2 1268 -1 2311 2 2318 3 10 68 12 297 10 l293 -3 5 -1945z"/>
<path d="M12822 14268 c-18 -5 -58 -24 -89 -42 -62 -35 -124 -70 -213 -119
-30 -17 -67 -38 -82 -49 -14 -10 -28 -18 -31 -18 -3 0 -79 -42 -169 -94 -89
-51 -183 -104 -208 -118 -42 -23 -59 -33 -155 -88 -19 -11 -51 -29 -70 -40
-19 -11 -52 -30 -72 -41 -21 -12 -63 -35 -93 -52 -30 -17 -67 -38 -82 -49 -14
-10 -28 -18 -31 -18 -3 0 -61 -32 -129 -71 -67 -39 -143 -83 -168 -97 -46 -25
-137 -78 -355 -205 -180 -104 -188 -109 -210 -121 -112 -64 -141 -85 -166
-119 -36 -50 -50 -100 -51 -186 -1 -150 37 -239 125 -288 31 -17 137 -18 2286
-21 1554 -1 2265 1 2292 8 48 13 104 61 129 110 27 53 43 192 30 261 -14 75
-34 112 -79 151 -34 28 -342 209 -526 309 -33 17 -64 35 -70 39 -5 5 -32 20
-60 36 -27 15 -400 227 -828 472 -708 404 -784 445 -836 451 -32 4 -72 3 -89
-1z m98 -488 c14 -11 28 -20 31 -20 4 0 93 -49 199 -110 106 -60 193 -110 195
-110 2 0 33 -18 69 -40 36 -22 68 -40 72 -40 3 0 18 -8 32 -18 15 -11 52 -32
82 -49 58 -32 74 -41 213 -122 49 -28 90 -51 92 -51 2 0 33 -18 69 -40 36 -22
68 -40 72 -40 3 0 18 -8 32 -18 15 -11 52 -33 82 -49 30 -17 111 -62 178 -102
68 -39 128 -71 133 -71 5 0 9 -7 9 -15 0 -13 -184 -15 -1600 -15 -1275 0
-1600 3 -1600 13 0 6 21 23 48 36 26 14 58 32 72 41 14 10 61 36 105 60 44 24
109 61 144 82 34 21 64 38 66 38 2 0 59 32 127 71 67 39 143 83 168 97 25 14
87 49 138 78 52 30 96 54 99 54 3 0 17 8 31 18 15 11 54 34 87 52 33 18 85 46
115 63 30 16 67 38 82 49 14 10 29 18 32 18 3 0 29 14 58 31 29 18 78 46 108
62 30 17 69 39 85 49 37 22 44 22 75 -2z"/>
<path d="M10926 12168 c-23 -7 -56 -28 -80 -52 -85 -85 -88 -221 -6 -307 42
-44 98 -62 190 -61 36 1 71 -2 78 -6 10 -7 12 -251 10 -1188 l-3 -1179 -95 -6
c-107 -6 -143 -21 -188 -74 -70 -86 -68 -199 6 -285 64 -76 -114 -70 2061 -70
l1957 0 46 29 c68 43 98 100 98 186 0 84 -27 137 -92 180 -38 26 -54 29 -145
33 l-103 5 -2 1179 c-2 916 0 1182 9 1190 7 5 29 7 51 3 21 -3 68 -1 104 5
114 20 177 96 178 211 0 69 -18 114 -62 156 -70 68 81 63 -2047 62 -1292 -1
-1939 -4 -1965 -11z m1212 -1612 l2 -1186 -292 2 -293 3 -3 1174 c-1 703 2
1178 7 1185 7 8 96 10 293 9 l283 -1 3 -1186z m1052 1178 c7 -7 9 -372 8
-1185 l-3 -1174 -305 0 -305 0 -3 1182 -2 1183 162 2 c308 5 437 3 448 -8z
m1013 6 c16 0 17 -63 17 -1185 l0 -1185 -292 2 -293 3 -3 1179 c-1 698 2 1182
7 1185 5 3 130 5 278 3 147 -1 276 -2 286 -2z"/>
<path d="M10706 8735 c-149 -53 -183 -259 -61 -368 54 -49 -63 -47 2255 -47
l2168 0 48 33 c132 87 131 280 -1 362 l-48 30 -2161 2 c-1821 2 -2167 0 -2200
-12z"/>
</g>
</svg>
