<?xml version="1.0" standalone="no"?>
<!DOCTYPE svg PUBLIC "-//W3C//DTD SVG 20010904//EN"
 "http://www.w3.org/TR/2001/REC-SVG-20010904/DTD/svg10.dtd">
<svg version="1.0" xmlns="http://www.w3.org/2000/svg"
 width="1254.000000pt" height="1254.000000pt" viewBox="0 0 1254.000000 1254.000000"
 preserveAspectRatio="xMidYMid meet">

<g transform="translate(0.000000,1254.000000) scale(0.100000,-0.100000)"
fill="#000000" stroke="none">
<path d="M0 6270 l0 -6270 6270 0 6270 0 0 6270 0 6270 -6270 0 -6270 0 0
-6270z m6690 6120 c738 -43 1592 -278 2262 -624 282 -145 462 -254 748 -451
118 -81 348 -259 450 -349 20 -17 72 -62 115 -100 185 -161 488 -484 692 -736
121 -149 183 -231 183 -240 0 -5 13 -24 29 -42 15 -18 48 -63 72 -99 24 -36
60 -90 80 -120 53 -80 137 -218 217 -359 71 -126 243 -473 257 -520 4 -14 13
-34 19 -45 26 -42 144 -353 186 -490 12 -38 32 -104 45 -145 36 -115 71 -251
105 -405 17 -77 35 -158 40 -180 13 -52 55 -316 74 -470 64 -503 57 -1119 -20
-1609 -39 -251 -132 -670 -174 -786 -5 -14 -21 -65 -36 -115 -44 -145 -159
-455 -228 -615 -39 -89 -202 -418 -216 -435 -4 -5 -23 -37 -41 -70 -98 -181
-357 -583 -381 -593 -4 -2 -8 -9 -8 -16 0 -6 -8 -19 -18 -27 -15 -14 -71 -87
-97 -128 -5 -9 -36 -46 -67 -82 -32 -37 -58 -70 -58 -74 0 -12 -196 -230 -349
-388 -162 -166 -351 -339 -511 -467 -58 -46 -125 -100 -150 -120 -117 -93
-609 -420 -634 -420 -2 0 -43 -23 -92 -52 -269 -155 -773 -371 -1099 -469
-307 -93 -657 -174 -900 -209 -44 -6 -107 -16 -140 -20 -239 -35 -393 -44
-725 -44 -346 0 -497 9 -800 49 -638 84 -1345 304 -1891 588 -163 84 -279 147
-347 189 -34 21 -64 38 -67 38 -5 0 -272 176 -325 214 -403 289 -714 566
-1035 920 -50 55 -99 112 -110 127 -11 15 -54 67 -95 116 -108 129 -143 175
-312 423 -403 591 -701 1258 -861 1930 -84 348 -125 588 -148 860 -46 555 -30
1052 51 1522 61 358 133 646 247 988 46 140 89 259 94 265 5 5 9 16 9 25 1 8
9 33 20 55 11 22 19 43 20 48 0 4 10 29 21 55 12 26 31 67 42 92 34 77 195
402 230 465 59 106 84 149 126 217 81 132 261 399 344 510 92 122 260 326 283
344 8 6 14 15 14 19 0 17 384 411 499 513 47 42 91 81 97 87 6 5 41 35 79 65
37 30 86 71 109 91 116 101 494 366 649 455 38 21 76 44 85 49 244 145 665
346 847 405 21 7 60 24 86 36 26 13 55 24 64 24 9 0 31 6 48 14 45 21 269 90
422 130 356 94 780 165 1100 185 182 12 579 12 775 1z"/>
<path d="M3935 8775 c-58 -29 -60 -38 -65 -310 l-5 -250 -276 -5 c-259 -5
-278 -6 -299 -25 -53 -48 -50 46 -50 -1655 0 -1697 -2 -1619 50 -1665 22 -20
40 -20 1069 -26 918 -5 1058 -8 1146 -23 218 -36 377 -98 503 -194 50 -38 131
-38 187 1 56 39 180 76 294 87 57 6 437 10 931 10 459 0 1104 -1 1434 0 l598
0 33 33 c60 60 54 159 -14 204 l-34 23 -1506 0 c-1305 -1 -1517 -3 -1586 -16
-44 -8 -87 -16 -95 -17 -13 -2 -16 171 -20 1489 l-5 1491 -30 43 c-44 65 -208
232 -294 303 -309 249 -712 415 -1186 489 -181 28 -734 37 -780 13z m634 -270
c542 -61 1015 -272 1318 -588 l83 -86 0 -1354 c0 -745 -3 -1357 -6 -1360 -4
-3 -43 28 -88 69 -44 41 -139 115 -211 163 -374 252 -798 377 -1347 397 l-188
7 0 1377 c0 757 3 1380 7 1383 12 13 296 7 432 -8z m-699 -1755 c4 -945 8
-1200 18 -1217 26 -47 57 -53 264 -53 455 0 807 -71 1123 -225 119 -59 279
-154 272 -162 -3 -2 -71 0 -150 6 -88 7 -490 11 -1016 11 l-871 0 0 1420 0
1420 178 -2 177 -3 5 -1195z"/>
<path d="M7795 8710 c-70 -38 -473 -267 -860 -488 -148 -86 -321 -184 -383
-220 -122 -69 -146 -94 -156 -166 -9 -57 10 -145 37 -174 50 -55 -21 -52 1459
-52 1310 0 1375 1 1408 18 93 49 110 236 29 308 -13 12 -211 127 -439 257
-228 129 -534 304 -680 387 -309 178 -319 181 -415 130z m578 -536 c265 -152
486 -280 492 -285 5 -5 -391 -9 -973 -9 -540 0 -982 3 -982 8 1 7 64 44 580
337 162 92 318 181 345 196 28 16 51 29 53 29 1 0 219 -124 485 -276z"/>
<path d="M6670 7442 c-66 -35 -89 -125 -50 -190 25 -41 73 -62 140 -62 l50 0
0 -725 0 -725 -53 0 c-66 0 -116 -26 -139 -71 -35 -67 -11 -146 53 -181 32
-17 90 -18 1222 -18 1338 0 1238 -6 1277 76 29 59 21 110 -26 155 -30 29 -42
34 -99 37 -60 4 -64 6 -69 31 -4 23 -2 1320 2 1394 2 26 4 27 53 27 97 0 152
47 153 132 1 55 -23 94 -75 120 -32 17 -111 18 -1219 18 -1130 0 -1187 -1
-1220 -18z m765 -977 l0 -720 -180 0 -180 0 -3 710 c-1 391 0 716 3 723 3 10
46 12 182 10 l178 -3 0 -720z m645 0 l0 -725 -187 2 -188 3 -3 710 c-1 391 0
716 3 723 3 9 51 12 190 12 l185 0 0 -725z m630 0 l0 -725 -181 2 -181 3 1
720 c0 396 1 721 1 723 0 1 81 2 180 2 l180 0 0 -725z"/>
<path d="M6540 5343 c-39 -20 -70 -72 -70 -118 0 -44 31 -96 71 -117 33 -17
90 -18 1366 -16 l1333 3 36 36 c32 32 36 43 37 87 1 58 -15 94 -52 119 -24 17
-106 18 -1356 21 -1252 2 -1332 1 -1365 -15z"/>
</g>
</svg>
